<?xml version="1.0" encoding="utf-8"?><svg version="1.1" id="Layer_1" xmlns="http://www.w3.org/2000/svg" xmlns:xlink="http://www.w3.org/1999/xlink" x="0px" y="0px" viewBox="0 0 55.2 38.4" style="enable-background:new 0 0 55.2 38.4" xml:space="preserve"><style type="text/css">.st0{fill:#DE2910;} .st1{fill:#FFFFFF;}</style><g><path class="st0" d="M3.03,0h49.13c1.67,0,3.03,1.36,3.03,3.03v32.33c0,1.66-1.35,3.02-3.01,3.03H3.01C1.35,38.39,0,37.03,0,35.37 V3.03C0,1.36,1.36,0,3.03,0L3.03,0z"/><path class="st1" d="M27.6,19.19c-6.74-2.85-3.75-11.62,2.69-11.18c-1.3,0.67-1.49,1.92-0.75,3.08c0.83,1.3-0.08,3.38-1.2,3.89 C26.49,15.81,26.12,18.04,27.6,19.19L27.6,19.19z"/><path class="st0" d="M27.23,12.86l-0.38,0.6l-0.14-0.69l-0.68-0.18l0.62-0.34l-0.04-0.7l0.52,0.48l0.66-0.26l-0.3,0.64l0.45,0.54 L27.23,12.86L27.23,12.86z M27.64,19.12c-0.81-0.42-1.47-1.29-1.76-2.33c-0.33-1.2-0.14-2.48,0.52-3.52l-0.14-0.09 c-0.68,1.08-0.88,2.42-0.54,3.66c0.3,1.1,0.97,1.99,1.84,2.44L27.64,19.12L27.64,19.12z"/><path class="st1" d="M27.6,19.2c0.63-7.29,9.89-7.16,11.46-0.89c-1.04-1.03-2.29-0.83-3.16,0.24c-0.98,1.19-3.24,0.97-4.07,0.06 C30.48,17.1,28.25,17.43,27.6,19.2L27.6,19.2z"/><path class="st0" d="M33.52,16.89l-0.68-0.18l0.62-0.34l-0.04-0.7l0.52,0.48l0.66-0.26l-0.3,0.64l0.45,0.54l-0.7-0.08l-0.38,0.59 L33.52,16.89L33.52,16.89z M27.69,19.21c0.15-0.9,0.77-1.8,1.67-2.39c1.04-0.68,2.32-0.9,3.51-0.6l0.04-0.16 c-1.24-0.31-2.57-0.09-3.64,0.62c-0.95,0.63-1.59,1.54-1.75,2.5L27.69,19.21L27.69,19.21z"/><path class="st1" d="M27.6,19.2c7.12-1.66,9.87,7.2,4.39,10.63c0.66-1.31,0.08-2.43-1.2-2.93c-1.44-0.56-1.93-2.78-1.31-3.85 C30.49,21.28,29.48,19.27,27.6,19.2L27.6,19.2L27.6,19.2z"/><path class="st0" d="M31.62,24.11l-0.04-0.7l0.52,0.48l0.66-0.26l-0.3,0.64l0.45,0.54l-0.7-0.08l-0.38,0.6l-0.14-0.69l-0.68-0.18 L31.62,24.11L31.62,24.11z M27.62,19.29c0.91-0.14,1.95,0.18,2.79,0.85c0.97,0.77,1.57,1.92,1.65,3.15l0.17-0.01 c-0.09-1.28-0.71-2.47-1.71-3.27c-0.89-0.71-1.96-1.04-2.92-0.89L27.62,19.29L27.62,19.29z"/><path class="st1" d="M27.6,19.21c3.78,6.26-3.8,11.61-8.75,7.46c1.45,0.22,2.34-0.68,2.41-2.05c0.09-1.54,2.05-2.69,3.26-2.44 C26.51,22.59,28.12,21.01,27.6,19.21L27.6,19.21z"/><path class="st0" d="M24.17,24.55l0.66-0.26l-0.3,0.64l0.45,0.54l-0.7-0.08l-0.38,0.59l-0.14-0.69l-0.68-0.18l0.62-0.34l-0.04-0.7 L24.17,24.55L24.17,24.55z M27.52,19.24c0.41,0.82,0.43,1.91,0.05,2.92c-0.44,1.16-1.35,2.09-2.49,2.55l0.06,0.16 c1.19-0.48,2.13-1.44,2.58-2.64c0.4-1.07,0.38-2.18-0.06-3.05L27.52,19.24L27.52,19.24z"/><path class="st1" d="M27.59,19.2c-4.79,5.53-12.21-0.02-9.8-6.02c0.23,1.45,1.36,2.01,2.7,1.66c1.49-0.39,3.19,1.12,3.33,2.35 C24.04,19.21,26.04,20.25,27.59,19.2L27.59,19.2L27.59,19.2z"/><path class="st0" d="M21.46,17.59l0.45,0.54l-0.7-0.08l-0.38,0.6l-0.14-0.69L20,17.78l0.62-0.34l-0.04-0.7l0.52,0.48l0.66-0.26 L21.46,17.59L21.46,17.59z M27.54,19.14c-0.65,0.65-1.68,1-2.76,0.95c-1.24-0.06-2.4-0.63-3.19-1.58l-0.13,0.11 c0.82,0.98,2.03,1.58,3.31,1.64c1.14,0.05,2.19-0.31,2.89-1L27.54,19.14L27.54,19.14z"/></g></svg>