<svg xmlns="http://www.w3.org/2000/svg" shape-rendering="geometricPrecision" text-rendering="geometricPrecision" image-rendering="optimizeQuality" fill-rule="evenodd" clip-rule="evenodd" viewBox="0 0 512 512"><g fill-rule="nonzero"><path fill="#999" d="M256 0c70.68 0 134.69 28.66 181.01 74.99C483.34 121.31 512 185.32 512 256c0 70.68-28.66 134.69-74.99 181.01C390.69 483.34 326.68 512 256 512c-70.68 0-134.69-28.66-181.01-74.99C28.66 390.69 0 326.68 0 256c0-70.68 28.66-134.69 74.99-181.01C121.31 28.66 185.32 0 256 0z"/><path fill="#fff" d="M256.01 19.48c65.29 0 124.45 26.48 167.24 69.27l1.1 1.18c42.14 42.72 68.17 101.37 68.17 166.07 0 65.3-26.49 124.45-69.28 167.24l-1.19 1.1c-42.73 42.15-101.4 68.19-166.04 68.19-65.31 0-124.46-26.5-167.25-69.29C45.97 380.45 19.47 321.29 19.47 256c0-65.24 26.51-124.38 69.34-167.19 42.74-42.84 101.89-69.33 167.2-69.33z"/><path fill="#BC002D" d="M363.03 254.92c0-59.09-47.91-106.99-106.99-106.99-59.09 0-106.99 47.9-106.99 106.99 0 59.08 47.9 106.99 106.99 106.99 59.08 0 106.99-47.91 106.99-106.99z"/></g></svg>