<svg xmlns="http://www.w3.org/2000/svg" shape-rendering="geometricPrecision" text-rendering="geometricPrecision" image-rendering="optimizeQuality" fill-rule="evenodd" clip-rule="evenodd" viewBox="0 0 512 512"><g fill-rule="nonzero"><path fill="#4D4D4D" d="M256 0c70.683 0 134.689 28.664 181.012 74.987C483.336 121.311 512 185.316 512 256c0 70.684-28.664 134.689-74.988 181.013C390.689 483.337 326.683 512 256 512c-70.677 0-134.69-28.663-181.013-74.987C28.664 390.689 0 326.676 0 256c0-70.684 28.664-134.689 74.987-181.013C121.31 28.664 185.316 0 256 0z"/><path fill="#fff" d="M256.001 19.596c65.278 0 124.383 26.467 167.162 69.243 42.777 42.78 69.242 101.884 69.242 167.162s-26.465 124.383-69.245 167.16c-42.776 42.779-101.881 69.245-167.159 69.245-65.278 0-124.383-26.466-167.162-69.242-42.777-42.78-69.243-101.885-69.243-167.163S46.062 131.619 88.839 88.839c42.779-42.776 101.884-69.243 167.162-69.243z"/><path fill="#ED2939" d="M40.182 271.949H471.82c.384-5.267.588-10.584.588-15.948 0-119.52-96.889-216.407-216.407-216.407-119.521 0-216.407 96.887-216.407 216.407 0 5.364.204 10.681.588 15.948z"/><path fill="#fff" d="M226.262 244.844a82.467 82.467 0 01-27.344 4.637c-45.61 0-82.531-36.921-82.531-82.531 0-45.61 36.921-82.532 82.531-82.532 9.562 0 18.75 1.638 27.299 4.637-41.549 1.631-74.857 35.841-74.857 77.895 0 41.961 33.228 76.285 74.902 77.894zm54.272-23.713l-11.203-8.571-11.202 8.571 4.346-13.829-11.202-8.577 13.828.118 4.23-13.947 4.347 13.947 13.829-.118-11.203 8.577 4.23 13.829zm-54.981 0l-11.202-8.571-11.203 8.571 4.342-13.829-11.315-8.577 13.946.118 4.23-13.947 4.23 13.947 13.829-.118-11.202 8.577 4.345 13.829zm27.547-84.817l-11.203-8.572-11.202 8.572 4.346-13.829-11.32-8.576h13.947l4.229-13.83 4.229 13.83h13.947l-11.315 8.459 4.342 13.946zm43.894 32.579l-11.201-8.575-11.204 8.575 4.347-13.833-11.204-8.572 13.83.112 4.231-13.945 4.344 13.945 13.831-.112-11.203 8.572 4.229 13.833zm-87.901 0l-11.203-8.575-11.202 8.575 4.342-13.833-11.315-8.572 13.946.112 4.229-13.945 4.229 13.945 13.83-.112-11.202 8.572 4.346 13.833z"/></g></svg>