<svg xmlns="http://www.w3.org/2000/svg" shape-rendering="geometricPrecision" text-rendering="geometricPrecision" image-rendering="optimizeQuality" fill-rule="evenodd" clip-rule="evenodd" viewBox="0 0 512 512"><g fill-rule="nonzero"><path fill="#4D4D4D" d="M256 0c70.684 0 134.689 28.664 181.013 74.987C483.336 121.311 512 185.316 512 256c0 70.684-28.664 134.69-74.987 181.013C390.689 483.337 326.684 512 256 512c-70.677 0-134.69-28.663-181.013-74.987C28.663 390.69 0 326.676 0 256c0-70.684 28.663-134.689 74.987-181.013C121.31 28.664 185.316 0 256 0z"/><path fill="#fff" d="M256.001 19.596c65.278 0 124.383 26.466 167.162 69.243 42.777 42.779 69.243 101.884 69.243 167.162s-26.466 124.383-69.246 167.16c-42.776 42.779-101.881 69.245-167.159 69.245-65.278 0-124.383-26.466-167.162-69.242-42.777-42.78-69.243-101.885-69.243-167.163S46.062 131.618 88.839 88.839c42.779-42.777 101.884-69.243 167.162-69.243z"/><path fill="#FE0000" d="M39.62 258.071h243.355V41.265c106.787 13.279 189.433 104.353 189.433 214.736 0 119.518-96.889 216.407-216.407 216.407-118.83 0-215.267-95.773-216.381-214.337z"/><path fill="#000095" d="M39.62 258.071h243.355V41.265a218.685 218.685 0 00-26.974-1.671c-119.521 0-216.407 96.887-216.407 216.407 0 .691.02 1.379.026 2.07z"/><path fill="#fff" d="M218.81 227.888l-8.316-30.956a39.273 39.273 0 01-14.372 8.269l22.688 22.687zm0-60.144c0-19.23-15.617-34.7-34.697-34.7-19.23 0-34.699 15.617-34.699 34.7 0 19.227 15.617 34.697 34.699 34.697a34.614 34.614 0 0034.697-34.697zm-5.509 26.38l30.95 8.317-22.687-22.655a39.294 39.294 0 01-8.263 14.338zm9.264-18.091l31.086-8.289-31.098-8.275c.573 2.669.88 5.438.88 8.275 0 2.846-.301 5.621-.868 8.289zm-1.021-20.34l22.707-22.643-30.997 8.316a39.378 39.378 0 018.29 14.327zm-11.056-17.09l8.322-30.997-22.643 22.708a39.447 39.447 0 0114.321 8.289zm-18.103-9.305l-8.272-31.092-8.289 31.092c2.671-.582 5.44-.88 8.283-.88 2.84 0 5.606.304 8.278.88zm-20.364 1.022l-22.755-22.714 8.411 31.042a39.153 39.153 0 0114.344-8.328zm-17.06 11.053l-30.992-8.329 22.687 22.688a39.334 39.334 0 018.305-14.359zm-9.299 18.087l-31.092 8.284 31.092 8.272a39.168 39.168 0 01-.88-8.272c0-2.843.304-5.612.88-8.284zm1.009 20.338l-22.702 22.643 30.998-8.317a39.456 39.456 0 01-8.296-14.326zm11.065 17.095l-8.322 30.995 22.654-22.705a39.242 39.242 0 01-14.332-8.29zm18.099 9.303l8.272 31.086 8.284-31.086a39.874 39.874 0 01-8.284.873 39.41 39.41 0 01-8.272-.873z"/></g></svg>